<svg width="14" height="14" viewBox="0 0 14 14" fill="none" xmlns="http://www.w3.org/2000/svg">
<path d="M13.9722 8.93175C13.5287 10.3798 12.6397 11.6511 11.4318 12.5646C10.3713 13.3628 9.10931 13.8496 7.78753 13.9704C6.46574 14.0912 5.13644 13.8412 3.94885 13.2484C2.76125 12.6557 1.76236 11.7437 1.06429 10.6148C0.366217 9.48591 -0.00340063 8.18479 -0.00307919 6.85749C-0.0078514 5.30826 0.495786 3.80024 1.43057 2.56479C2.34413 1.3569 3.61539 0.467906 5.06344 0.0243232C5.15887 -0.00506363 5.26052 -0.00787764 5.35744 0.0161838C5.45435 0.0402453 5.54288 0.0902719 5.61349 0.160883C5.6841 0.231495 5.73413 0.32002 5.75819 0.416937C5.78225 0.513855 5.77944 0.615498 5.75005 0.710936C5.43341 1.75831 5.40686 2.87198 5.67323 3.93325C5.9396 4.99453 6.48891 5.96366 7.26262 6.73737C8.03633 7.51108 9.00546 8.06039 10.0667 8.32676C11.128 8.59313 12.2417 8.56658 13.2891 8.24994C13.3845 8.22056 13.4861 8.21774 13.5831 8.24181C13.68 8.26587 13.7685 8.31589 13.8391 8.3865C13.9097 8.45712 13.9597 8.54564 13.9838 8.64256C14.0079 8.73948 14.0051 8.84112 13.9757 8.93656L13.9722 8.93175Z" fill="#212529"/>
</svg>
