<svg xmlns="http://www.w3.org/2000/svg" width="1920" height="1080"><path d="M-85-201l341-12 177-20z" fill="#3d2a74" stroke="#3d2a74" stroke-width="1.51"/><path d="M433-233l128 7 610 4z" fill="#562e77" stroke="#562e77" stroke-width="1.51"/><path d="M433-233l738 11 243-6z" fill="#633078" stroke="#633078" stroke-width="1.51"/><path d="M1334 1283l-161 23 288-25z" fill="#d14787" stroke="#d14787" stroke-width="1.51"/><path d="M1461 1281l-288 25h759z" fill="#da4888" stroke="#da4888" stroke-width="1.51"/><path d="M1736-178l97-1 117-24z" fill="#89387d" stroke="#89387d" stroke-width="1.51"/><path d="M1414-228l322 50 214-25z" fill="#82367c" stroke="#82367c" stroke-width="1.51"/><path d="M2089 534l-32 116 35 106z" fill="#c84585" stroke="#c84585" stroke-width="1.51"/><path d="M2055 249l33 169 20-277z" fill="#b04082" stroke="#b04082" stroke-width="1.51"/><path d="M2000 74l108 67 11-111z" fill="#a43d81" stroke="#a43d81" stroke-width="1.51"/><path d="M2084-141l-17 130 52 41z" fill="#9d3c80" stroke="#9d3c80" stroke-width="1.51"/><path d="M1951 1129l172 52 13-142z" fill="#e54b89" stroke="#e54b89" stroke-width="1.51"/><path d="M2021 999l-70 130 185-90z" fill="#e04989" stroke="#e04989" stroke-width="1.51"/><path d="M2108 141l-20 277 52 484z" fill="#bf4285" stroke="#bf4285" stroke-width="1.51"/><path d="M2088 418l1 116 51 368z" fill="#c74485" stroke="#c74485" stroke-width="1.51"/><path d="M2092 756l-94 137 142 9z" fill="#d44787" stroke="#d44787" stroke-width="1.51"/><path d="M2021 999l115 40 4-137z" fill="#de4988" stroke="#de4988" stroke-width="1.51"/><path d="M1998 893l23 106 119-97z" fill="#d94888" stroke="#d94888" stroke-width="1.51"/><path d="M2089 534l3 222 48 146z" fill="#ce4686" stroke="#ce4686" stroke-width="1.51"/><path d="M2119 30l-11 111 32 761z" fill="#b84183" stroke="#b84183" stroke-width="1.51"/><path d="M1414-228l137 49 185 1z" fill="#7d357c" stroke="#7d357c" stroke-width="1.51"/><path d="M1945 331l23 66 87-148z" fill="#b03f82" stroke="#b03f82" stroke-width="1.51"/><path d="M2000-37l67 26 17-130z" fill="#9a3b7f" stroke="#9a3b7f" stroke-width="1.51"/><path d="M2055 249l-87 148 120 21z" fill="#b44083" stroke="#b44083" stroke-width="1.51"/><path d="M2008 571l49 79 32-116z" fill="#c34385" stroke="#c34385" stroke-width="1.51"/><path d="M1951 1129l161 96 11-44z" fill="#e94b8a" stroke="#e94b8a" stroke-width="1.51"/><path d="M2008 571l5 52 44 27z" fill="#c44485" stroke="#c44485" stroke-width="1.51"/><path d="M2067-11l-67 85 119-44z" fill="#a03c80" stroke="#a03c80" stroke-width="1.51"/><path d="M1987 745l11 148 94-137z" fill="#cf4687" stroke="#cf4687" stroke-width="1.51"/><path d="M1981 225l74 24 53-108z" fill="#ab3e82" stroke="#ab3e82" stroke-width="1.51"/><path d="M1951 1129l-19 177 180-81z" fill="#e94b89" stroke="#e94b89" stroke-width="1.51"/><path d="M2088 418l-120-21 121 137z" fill="#ba4184" stroke="#ba4184" stroke-width="1.51"/><path d="M2057 650l-70 95 105 11z" fill="#cb4586" stroke="#cb4586" stroke-width="1.51"/><path d="M2000 74l-19 151 127-84z" fill="#a63e81" stroke="#a63e81" stroke-width="1.51"/><path d="M1968 397l40 174 81-37z" fill="#bc4284" stroke="#bc4284" stroke-width="1.51"/><path d="M1950-203l50 166 84-104z" fill="#943a7f" stroke="#943a7f" stroke-width="1.51"/><path d="M1892 1181l2 88 38 37z" fill="#e74b89" stroke="#e74b89" stroke-width="1.51"/><path d="M1892 1181l40 125 19-177z" fill="#e54a89" stroke="#e54a89" stroke-width="1.51"/><path d="M1968 397l-68 117 108 57z" fill="#b94284" stroke="#b94284" stroke-width="1.51"/><path d="M1981 225l-36 106 110-82z" fill="#ac3f82" stroke="#ac3f82" stroke-width="1.51"/><path d="M2013 623l-26 122 70-95z" fill="#c74486" stroke="#c74486" stroke-width="1.51"/><path d="M2000-37V74l67-85z" fill="#9d3c80" stroke="#9d3c80" stroke-width="1.51"/><path d="M1615 1212l-154 69 246-74z" fill="#d94888" stroke="#d94888" stroke-width="1.51"/><path d="M1707 1207l-246 74 471 25z" fill="#df4988" stroke="#df4988" stroke-width="1.51"/><path d="M1987 745l-150 150 161-2z" fill="#cf4687" stroke="#cf4687" stroke-width="1.51"/><path d="M1898 217l83 8 19-151z" fill="#a53d81" stroke="#a53d81" stroke-width="1.51"/><path d="M1950-203L1842-48l158 11z" fill="#933a7f" stroke="#933a7f" stroke-width="1.51"/><path d="M1910 709l77 36 26-122z" fill="#c64485" stroke="#c64485" stroke-width="1.51"/><path d="M1815 997l136 132 70-130z" fill="#db4988" stroke="#db4988" stroke-width="1.51"/><path d="M1998 893l-161 2 184 104z" fill="#d44787" stroke="#d44787" stroke-width="1.51"/><path d="M1837 895l-22 102 206 2z" fill="#d44787" stroke="#d44787" stroke-width="1.51"/><path d="M1911 304l34 27 36-106z" fill="#ab3e82" stroke="#ab3e82" stroke-width="1.51"/><path d="M1808 803l29 92 150-150z" fill="#ca4586" stroke="#ca4586" stroke-width="1.51"/><path d="M1842 93l56 124 102-143z" fill="#a13c81" stroke="#a13c81" stroke-width="1.51"/><path d="M1842-48V93l158-19z" fill="#9a3b7f" stroke="#9a3b7f" stroke-width="1.51"/><path d="M1842-48l158 122V-37z" fill="#993b7f" stroke="#993b7f" stroke-width="1.51"/><path d="M2008 571l-108-57 113 109z" fill="#bf4384" stroke="#bf4384" stroke-width="1.51"/><path d="M1900 514l10 195 103-86z" fill="#c04385" stroke="#c04385" stroke-width="1.51"/><path d="M1910 709l-102 94 179-58z" fill="#c74485" stroke="#c74485" stroke-width="1.51"/><path d="M1833-179l9 131 108-155z" fill="#8d387e" stroke="#8d387e" stroke-width="1.51"/><path d="M1894 1269l-187-62 225 99z" fill="#e54b89" stroke="#e54b89" stroke-width="1.51"/><path d="M1898 217l13 87 70-79z" fill="#a83e82" stroke="#a83e82" stroke-width="1.51"/><path d="M1945 331l-128 42 151 24z" fill="#af3f83" stroke="#af3f83" stroke-width="1.51"/><path d="M1817 373l83 141 68-117z" fill="#b34083" stroke="#b34083" stroke-width="1.51"/><path d="M1900 514l-172 97 182 98z" fill="#bc4284" stroke="#bc4284" stroke-width="1.51"/><path d="M1911 304l-94 69 128-42z" fill="#ad3f82" stroke="#ad3f82" stroke-width="1.51"/><path d="M1815 997l77 184 59-52z" fill="#dd4888" stroke="#dd4888" stroke-width="1.51"/><path d="M999 1284l-222 17 396 5z" fill="#c44385" stroke="#c44385" stroke-width="1.51"/><path d="M1815 997l-57 44 134 140z" fill="#d84887" stroke="#d84887" stroke-width="1.51"/><path d="M1817 373l-44 69 127 72z" fill="#b13f83" stroke="#b13f83" stroke-width="1.51"/><path d="M1758 1041l-10 120 144 20z" fill="#da4988" stroke="#da4988" stroke-width="1.51"/><path d="M1842 93l-72 44 128 80z" fill="#9e3c80" stroke="#9e3c80" stroke-width="1.51"/><path d="M1722 562l6 49 172-97z" fill="#b74183" stroke="#b74183" stroke-width="1.51"/><path d="M1728 611l-3 124 185-26z" fill="#be4384" stroke="#be4384" stroke-width="1.51"/><path d="M1898 217l-81 156 94-69z" fill="#a93f81" stroke="#a93f81" stroke-width="1.51"/><path d="M1725 735l83 68 102-94z" fill="#c34385" stroke="#c34385" stroke-width="1.51"/><path d="M1892 1181l-144-20 146 108z" fill="#e14a89" stroke="#e14a89" stroke-width="1.51"/><path d="M1704 322l113 51 81-156z" fill="#a73e81" stroke="#a73e81" stroke-width="1.51"/><path d="M1770 137l-66 185 194-105z" fill="#a13d80" stroke="#a13d80" stroke-width="1.51"/><path d="M1773 442l-51 120 178-48z" fill="#b44083" stroke="#b44083" stroke-width="1.51"/><path d="M1748 1161l-41 46 187 62z" fill="#df4a88" stroke="#df4a88" stroke-width="1.51"/><path d="M471 1251l-444 43 750 7z" fill="#ac3f82" stroke="#ac3f82" stroke-width="1.51"/><path d="M1736-178l7 103 90-104z" fill="#89377d" stroke="#89377d" stroke-width="1.51"/><path d="M1708 862l107 135 22-102z" fill="#cd4686" stroke="#cd4686" stroke-width="1.51"/><path d="M1808 803l-100 59 129 33z" fill="#c94586" stroke="#c94586" stroke-width="1.51"/><path d="M1833-179l-90 104 99 27z" fill="#8d387d" stroke="#8d387d" stroke-width="1.51"/><path d="M1743-75l45 179 54-152z" fill="#923a7e" stroke="#923a7e" stroke-width="1.51"/><path d="M1788 104l-18 33 72-44z" fill="#9b3b7f" stroke="#9b3b7f" stroke-width="1.51"/><path d="M1842-48l-54 152 54-11z" fill="#983a7f" stroke="#983a7f" stroke-width="1.51"/><path d="M1743-75L1642 46l146 58z" fill="#923a7f" stroke="#923a7f" stroke-width="1.51"/><path d="M1708 862l-52 143 102 36z" fill="#cd4686" stroke="#cd4686" stroke-width="1.51"/><path d="M1708 862l50 179 57-44z" fill="#cf4687" stroke="#cf4687" stroke-width="1.51"/><path d="M1704 322l69 120 44-69z" fill="#aa3f82" stroke="#aa3f82" stroke-width="1.51"/><path d="M1725 735l-17 127 100-59z" fill="#c44485" stroke="#c44485" stroke-width="1.51"/><path d="M1596 177l108 145 66-185z" fill="#9c3b80" stroke="#9c3b80" stroke-width="1.51"/><path d="M1704 322l-66 79 135 41z" fill="#a83e81" stroke="#a83e81" stroke-width="1.51"/><path d="M1642 46l128 91 18-33z" fill="#973a7f" stroke="#973a7f" stroke-width="1.51"/><path d="M1656 1157l92 4 10-120z" fill="#d74888" stroke="#d74888" stroke-width="1.51"/><path d="M1638 401l84 161 51-120z" fill="#ae3f82" stroke="#ae3f82" stroke-width="1.51"/><path d="M1642 46l-46 131 174-40z" fill="#963a7f" stroke="#963a7f" stroke-width="1.51"/><path d="M1638 401l-60 86 144 75z" fill="#ac3e82" stroke="#ac3e82" stroke-width="1.51"/><path d="M1666 733l42 129 17-127z" fill="#c04384" stroke="#c04384" stroke-width="1.51"/><path d="M1666 733l59 2 3-124z" fill="#bb4284" stroke="#bb4284" stroke-width="1.51"/><path d="M1656 1005v152l102-116z" fill="#d24787" stroke="#d24787" stroke-width="1.51"/><path d="M1596 177l-29 70 137 75z" fill="#9c3b80" stroke="#9c3b80" stroke-width="1.51"/><path d="M1591-25l51 71 101-121z" fill="#8d397e" stroke="#8d397e" stroke-width="1.51"/><path d="M1736-178l-147 42 154 61z" fill="#87377d" stroke="#87377d" stroke-width="1.51"/><path d="M1656 1157l51 50 41-46z" fill="#d94888" stroke="#d94888" stroke-width="1.51"/><path d="M1592 919l64 86 52-143z" fill="#c84586" stroke="#c84586" stroke-width="1.51"/><path d="M1597 683l69 50 62-122z" fill="#b84184" stroke="#b84184" stroke-width="1.51"/><path d="M1551-179l38 43 147-42z" fill="#82367c" stroke="#82367c" stroke-width="1.51"/><path d="M1589-136l2 111 152-50z" fill="#88377d" stroke="#88377d" stroke-width="1.51"/><path d="M561-226l174 47 436-43z" fill="#5c2f78" stroke="#5c2f78" stroke-width="1.51"/><path d="M1722 562l-125 121 131-72z" fill="#b64183" stroke="#b64183" stroke-width="1.51"/><path d="M1666 733l-115 64 157 65z" fill="#bf4285" stroke="#bf4285" stroke-width="1.51"/><path d="M1523 577l74 106 125-121z" fill="#b34083" stroke="#b34083" stroke-width="1.51"/><path d="M1578 487l-55 90 199-15z" fill="#ae3f82" stroke="#ae3f82" stroke-width="1.51"/><path d="M1551 797l41 122 116-57z" fill="#c24385" stroke="#c24385" stroke-width="1.51"/><path d="M1656 1157l-41 55 92-5z" fill="#d94988" stroke="#d94988" stroke-width="1.51"/><path d="M1567 247l71 154 66-79z" fill="#a13c81" stroke="#a13c81" stroke-width="1.51"/><path d="M1518 92l78 85 46-131z" fill="#923a7e" stroke="#923a7e" stroke-width="1.51"/><path d="M1546 982l-89 116 199 59z" fill="#cd4686" stroke="#cd4686" stroke-width="1.51"/><path d="M1546 982l110 175v-152z" fill="#ce4687" stroke="#ce4687" stroke-width="1.51"/><path d="M1597 683l-46 114 115-64z" fill="#ba4284" stroke="#ba4284" stroke-width="1.51"/><path d="M1567 247l-81 45 152 109z" fill="#9e3c80" stroke="#9e3c80" stroke-width="1.51"/><path d="M1486 292l16 124 136-15z" fill="#a03c81" stroke="#a03c81" stroke-width="1.51"/><path d="M1457 1098l158 114 41-55z" fill="#d34787" stroke="#d34787" stroke-width="1.51"/><path d="M1592 919l-46 63 110 23z" fill="#c84585" stroke="#c84585" stroke-width="1.51"/><path d="M1591-25l-73 117 124-46z" fill="#8d387e" stroke="#8d387e" stroke-width="1.51"/><path d="M1502 416l76 71 60-86z" fill="#a63d81" stroke="#a63d81" stroke-width="1.51"/><path d="M1523 577l-29 52 103 54z" fill="#b14083" stroke="#b14083" stroke-width="1.51"/><path d="M1457 1098l4 183 154-69z" fill="#d34787" stroke="#d34787" stroke-width="1.51"/><path d="M1589-136l-97 115 99-4z" fill="#85377d" stroke="#85377d" stroke-width="1.51"/><path d="M1492-21l26 113 73-117z" fill="#89377e" stroke="#89377e" stroke-width="1.51"/><path d="M1551 797l-48 133 89-11z" fill="#c04485" stroke="#c04485" stroke-width="1.51"/><path d="M1510 183l57 64 29-70z" fill="#963a7f" stroke="#963a7f" stroke-width="1.51"/><path d="M1518 92l-8 91 86-6z" fill="#923a7f" stroke="#923a7f" stroke-width="1.51"/><path d="M1494 629l57 168 46-114z" fill="#b54183" stroke="#b54183" stroke-width="1.51"/><path d="M1494 629l-79 75 136 93z" fill="#b34083" stroke="#b34083" stroke-width="1.51"/><path d="M1551-179l-59 158 97-115z" fill="#81367c" stroke="#81367c" stroke-width="1.51"/><path d="M1503 930l43 52 46-63z" fill="#c54485" stroke="#c54485" stroke-width="1.51"/><path d="M1502 416l21 161 55-90z" fill="#a83e82" stroke="#a83e82" stroke-width="1.51"/><path d="M1416 856l87 74 48-133z" fill="#be4284" stroke="#be4284" stroke-width="1.51"/><path d="M1510 183l-24 109 81-45z" fill="#973a7f" stroke="#973a7f" stroke-width="1.51"/><path d="M1414-228l-4 205 82 2z" fill="#7e367c" stroke="#7e367c" stroke-width="1.51"/><path d="M1392 813l24 43 135-59z" fill="#b94284" stroke="#b94284" stroke-width="1.51"/><path d="M1415 704l-23 109 159-16z" fill="#b64183" stroke="#b64183" stroke-width="1.51"/><path d="M1414-228l78 207 59-158z" fill="#7d357c" stroke="#7d357c" stroke-width="1.51"/><path d="M1502 416l-139 171 160-10z" fill="#a73d81" stroke="#a73d81" stroke-width="1.51"/><path d="M1503 930l-46 168 89-116z" fill="#c74485" stroke="#c74485" stroke-width="1.51"/><path d="M1457 1098l-83 18 87 165z" fill="#ce4687" stroke="#ce4687" stroke-width="1.51"/><path d="M1486 292l-65-4 81 128z" fill="#9b3b80" stroke="#9b3b80" stroke-width="1.51"/><path d="M1364 1015l93 83 46-168z" fill="#c54485" stroke="#c54485" stroke-width="1.51"/><path d="M1421 288l65 4 24-109z" fill="#963a7f" stroke="#963a7f" stroke-width="1.51"/><path d="M1355 181l155 2 8-91z" fill="#8f397e" stroke="#8f397e" stroke-width="1.51"/><path d="M1492-21l-83 39 109 74z" fill="#88377d" stroke="#88377d" stroke-width="1.51"/><path d="M1363 587l131 42 29-52z" fill="#ab3e82" stroke="#ab3e82" stroke-width="1.51"/><path d="M1421 288l-64 80 145 48z" fill="#9b3b80" stroke="#9b3b80" stroke-width="1.51"/><path d="M1357 368l6 219 139-171z" fill="#a03d80" stroke="#a03d80" stroke-width="1.51"/><path d="M1409 18l-54 163 163-89z" fill="#8b387e" stroke="#8b387e" stroke-width="1.51"/><path d="M1355 181l66 107 89-105z" fill="#923a7f" stroke="#923a7f" stroke-width="1.51"/><path d="M1416 856l-52 159 139-85z" fill="#c04385" stroke="#c04385" stroke-width="1.51"/><path d="M1410-23l-1 41 83-39z" fill="#84377d" stroke="#84377d" stroke-width="1.51"/><path d="M1363 587l52 117 79-75z" fill="#ac3f82" stroke="#ac3f82" stroke-width="1.51"/><path d="M1374 1116l-40 167 127-2z" fill="#d04687" stroke="#d04687" stroke-width="1.51"/><path d="M1357 368l-90 99 96 120z" fill="#9e3c80" stroke="#9e3c80" stroke-width="1.51"/><path d="M1306 1167l28 116 40-167z" fill="#cb4586" stroke="#cb4586" stroke-width="1.51"/><path d="M1295-26l115 3 4-205z" fill="#7c357c" stroke="#7c357c" stroke-width="1.51"/><path d="M1364 1015l10 101 83-18z" fill="#c74485" stroke="#c74485" stroke-width="1.51"/><path d="M1228-162l67 136 119-202z" fill="#76347b" stroke="#76347b" stroke-width="1.51"/><path d="M1221 58l134 123 54-163z" fill="#85377d" stroke="#85377d" stroke-width="1.51"/><path d="M1295-26l-74 84 188-40z" fill="#80367c" stroke="#80367c" stroke-width="1.51"/><path d="M1171-222l57 60 186-66z" fill="#70337a" stroke="#70337a" stroke-width="1.51"/><path d="M1218 781l174 32 23-109z" fill="#b14082" stroke="#b14082" stroke-width="1.51"/><path d="M1254 899l110 116 52-159z" fill="#bb4284" stroke="#bb4284" stroke-width="1.51"/><path d="M1283 224l74 144 64-80z" fill="#93397f" stroke="#93397f" stroke-width="1.51"/><path d="M1355 181l-72 43 138 64z" fill="#8f397e" stroke="#8f397e" stroke-width="1.51"/><path d="M1363 587l-88-1 140 118z" fill="#a93e82" stroke="#a93e82" stroke-width="1.51"/><path d="M1275 586l-54 61 194 57z" fill="#a83f81" stroke="#a83f81" stroke-width="1.51"/><path d="M1392 813l-138 86 162-43z" fill="#b74184" stroke="#b74184" stroke-width="1.51"/><path d="M1221 647l-3 134 197-77z" fill="#ab3f82" stroke="#ab3f82" stroke-width="1.51"/><path d="M1283 224l-19 111 93 33z" fill="#923a7f" stroke="#923a7f" stroke-width="1.51"/><path d="M1295-26l114 44 1-41z" fill="#81367c" stroke="#81367c" stroke-width="1.51"/><path d="M735-179l214 30 222-73z" fill="#633078" stroke="#633078" stroke-width="1.51"/><path d="M1306 1167l-34 45 62 71z" fill="#cc4686" stroke="#cc4686" stroke-width="1.51"/><path d="M1267 467l8 119 88 1z" fill="#a23d81" stroke="#a23d81" stroke-width="1.51"/><path d="M1218 781l36 118 138-86z" fill="#b34083" stroke="#b34083" stroke-width="1.51"/><path d="M1254 899l6 125 104-9z" fill="#bc4284" stroke="#bc4284" stroke-width="1.51"/><path d="M1364 1015l-104 9 114 92z" fill="#c34385" stroke="#c34385" stroke-width="1.51"/><path d="M1260 1024l46 143 68-51z" fill="#c54485" stroke="#c54485" stroke-width="1.51"/><path d="M1221 58l62 166 72-43z" fill="#88377d" stroke="#88377d" stroke-width="1.51"/><path d="M1264 335l3 132 90-99z" fill="#983b7f" stroke="#983b7f" stroke-width="1.51"/><path d="M1221 58l-29 155 91 11z" fill="#86377d" stroke="#86377d" stroke-width="1.51"/><path d="M1272 1212l-99 94 161-23z" fill="#cd4686" stroke="#cd4686" stroke-width="1.51"/><path d="M1260 1024l-166 150 178 38z" fill="#c34485" stroke="#c34485" stroke-width="1.51"/><path d="M1228-162l-79 138 146-2z" fill="#77347b" stroke="#77347b" stroke-width="1.51"/><path d="M1260 1024l12 188 34-45z" fill="#c54485" stroke="#c54485" stroke-width="1.51"/><path d="M1264 335l-83-2 86 134z" fill="#943a7f" stroke="#943a7f" stroke-width="1.51"/><path d="M1267 467l-131 81 139 38z" fill="#9e3c80" stroke="#9e3c80" stroke-width="1.51"/><path d="M1192 213l72 122 19-111z" fill="#8d397e" stroke="#8d397e" stroke-width="1.51"/><path d="M1149-24l72 82 74-84z" fill="#7c357b" stroke="#7c357b" stroke-width="1.51"/><path d="M1120 1009l-26 165 166-150z" fill="#bc4284" stroke="#bc4284" stroke-width="1.51"/><path d="M1254 899l-112 20 118 105z" fill="#b74183" stroke="#b74183" stroke-width="1.51"/><path d="M1192 213l-11 120 83 2z" fill="#8e387e" stroke="#8e387e" stroke-width="1.51"/><path d="M1181 333l-62 43 148 91z" fill="#933a7f" stroke="#933a7f" stroke-width="1.51"/><path d="M1136 548l85 99 54-61z" fill="#a13c80" stroke="#a13c80" stroke-width="1.51"/><path d="M1142 919l-22 90 140 15z" fill="#b84184" stroke="#b84184" stroke-width="1.51"/><path d="M1094 1174l79 132 99-94z" fill="#c84486" stroke="#c84486" stroke-width="1.51"/><path d="M1136 548l4 72 81 27z" fill="#a03c81" stroke="#a03c81" stroke-width="1.51"/><path d="M1218 781l-76 138 112-20z" fill="#b14083" stroke="#b14083" stroke-width="1.51"/><path d="M1119 376l17 172 131-81z" fill="#973b7f" stroke="#973b7f" stroke-width="1.51"/><path d="M1130 51l62 162 29-155z" fill="#80367c" stroke="#80367c" stroke-width="1.51"/><path d="M1103 750l115 31 3-134z" fill="#a83f82" stroke="#a83f82" stroke-width="1.51"/><path d="M1019-129l130 105 22-198z" fill="#6f327a" stroke="#6f327a" stroke-width="1.51"/><path d="M1103 750l39 169 76-138z" fill="#ad3f82" stroke="#ad3f82" stroke-width="1.51"/><path d="M1149-24l-19 75 91 7z" fill="#7b357c" stroke="#7b357c" stroke-width="1.51"/><path d="M1140 620l-37 130 118-103z" fill="#a43d81" stroke="#a43d81" stroke-width="1.51"/><path d="M1171-222l-22 198 79-138z" fill="#71337a" stroke="#71337a" stroke-width="1.51"/><path d="M1130 51l-99 127 161 35z" fill="#81367c" stroke="#81367c" stroke-width="1.51"/><path d="M1051 312l130 21 11-120z" fill="#8a387e" stroke="#8a387e" stroke-width="1.51"/><path d="M1031 178l20 134 141-99z" fill="#85377d" stroke="#85377d" stroke-width="1.51"/><path d="M1052 1021l42 153 26-165z" fill="#ba4284" stroke="#ba4284" stroke-width="1.51"/><path d="M949-149l70 20 152-93z" fill="#693179" stroke="#693179" stroke-width="1.51"/><path d="M1094 1174l-95 110 174 22z" fill="#c64485" stroke="#c64485" stroke-width="1.51"/><path d="M1051 312l68 64 62-43z" fill="#8d397e" stroke="#8d397e" stroke-width="1.51"/><path d="M1052 1021l-31 106 73 47z" fill="#bb4184" stroke="#bb4184" stroke-width="1.51"/><path d="M1119 376l-130 43 147 129z" fill="#92397f" stroke="#92397f" stroke-width="1.51"/><path d="M1103 750l-115 98 154 71z" fill="#ab3f82" stroke="#ab3f82" stroke-width="1.51"/><path d="M906 1266l-129 35 222-17z" fill="#bf4384" stroke="#bf4384" stroke-width="1.51"/><path d="M989 419l-22 123 169 6z" fill="#943a7f" stroke="#943a7f" stroke-width="1.51"/><path d="M1028 663l75 87 37-130z" fill="#a23d81" stroke="#a23d81" stroke-width="1.51"/><path d="M1000-41l130 92 19-75z" fill="#76347b" stroke="#76347b" stroke-width="1.51"/><path d="M1019-129l-19 88 149 17z" fill="#70327a" stroke="#70327a" stroke-width="1.51"/><path d="M1136 548l-108 115 112-43z" fill="#9e3c80" stroke="#9e3c80" stroke-width="1.51"/><path d="M1052 1021l68-12 22-90z" fill="#b54083" stroke="#b54083" stroke-width="1.51"/><path d="M988 848l64 173 90-102z" fill="#b04083" stroke="#b04083" stroke-width="1.51"/><path d="M967 542l61 121 108-115z" fill="#9a3b7f" stroke="#9a3b7f" stroke-width="1.51"/><path d="M969 46l62 132 99-127z" fill="#7a347b" stroke="#7a347b" stroke-width="1.51"/><path d="M994 768l-6 80 115-98z" fill="#a63e81" stroke="#a63e81" stroke-width="1.51"/><path d="M1000-41l-31 87 161 5z" fill="#74337b" stroke="#74337b" stroke-width="1.51"/><path d="M1051 312l-62 107 130-43z" fill="#8c387e" stroke="#8c387e" stroke-width="1.51"/><path d="M1028 663l-34 105 109-18z" fill="#a33d81" stroke="#a33d81" stroke-width="1.51"/><path d="M988 848l-67 126 131 47z" fill="#ae3f82" stroke="#ae3f82" stroke-width="1.51"/><path d="M1021 1127l-22 157 95-110z" fill="#c04384" stroke="#c04384" stroke-width="1.51"/><path d="M906 915l15 59 67-126z" fill="#aa3e82" stroke="#aa3e82" stroke-width="1.51"/><path d="M906 1266l93 18 22-157z" fill="#bf4385" stroke="#bf4385" stroke-width="1.51"/><path d="M969 46l-57 32 119 100z" fill="#77357b" stroke="#77357b" stroke-width="1.51"/><path d="M1031 178l-168 85 188 49z" fill="#82367d" stroke="#82367d" stroke-width="1.51"/><path d="M863 263l86 118 102-69z" fill="#85377d" stroke="#85377d" stroke-width="1.51"/><path d="M949 381l40 38 62-107z" fill="#8a377e" stroke="#8a377e" stroke-width="1.51"/><path d="M937 1089l84 38 31-106z" fill="#b74183" stroke="#b74183" stroke-width="1.51"/><path d="M921 974l16 115 115-68z" fill="#b34083" stroke="#b34083" stroke-width="1.51"/><path d="M937 1089l-31 177 115-139z" fill="#ba4284" stroke="#ba4284" stroke-width="1.51"/><path d="M967 542l-120 86 181 35z" fill="#973b7f" stroke="#973b7f" stroke-width="1.51"/><path d="M919 783l75-15 34-105z" fill="#a13c81" stroke="#a13c81" stroke-width="1.51"/><path d="M912 78l-61 68 180 32z" fill="#78347b" stroke="#78347b" stroke-width="1.51"/><path d="M851 146l12 117 168-85z" fill="#7b357c" stroke="#7b357c" stroke-width="1.51"/><path d="M949-149l51 108 19-88z" fill="#6a3179" stroke="#6a3179" stroke-width="1.51"/><path d="M847 628l72 155 109-120z" fill="#9c3b80" stroke="#9c3b80" stroke-width="1.51"/><path d="M949-149l-44 62 95 46z" fill="#6a3279" stroke="#6a3279" stroke-width="1.51"/><path d="M884 537l83 5 22-123z" fill="#90397e" stroke="#90397e" stroke-width="1.51"/><path d="M919 783l69 65 6-80z" fill="#a43d81" stroke="#a43d81" stroke-width="1.51"/><path d="M905-87l64 133 31-87z" fill="#6e327a" stroke="#6e327a" stroke-width="1.51"/><path d="M884 537l-37 91 120-86z" fill="#933a7f" stroke="#933a7f" stroke-width="1.51"/><path d="M949 381l-65 156 105-118z" fill="#8c387e" stroke="#8c387e" stroke-width="1.51"/><path d="M919 783l-13 132 82-67z" fill="#a63d81" stroke="#a63d81" stroke-width="1.51"/><path d="M779 1141l127 125 31-177z" fill="#b74184" stroke="#b74184" stroke-width="1.51"/><path d="M811 468l73 69 65-156z" fill="#8b387d" stroke="#8b387d" stroke-width="1.51"/><path d="M824 10l88 68 57-32z" fill="#70337a" stroke="#70337a" stroke-width="1.51"/><path d="M905-87l-81 97 145 36z" fill="#6d327a" stroke="#6d327a" stroke-width="1.51"/><path d="M863 263l-91 73 177 45z" fill="#82367c" stroke="#82367c" stroke-width="1.51"/><path d="M772 336l39 132 138-87z" fill="#85377d" stroke="#85377d" stroke-width="1.51"/><path d="M735-179l170 92 44-62z" fill="#633179" stroke="#633179" stroke-width="1.51"/><path d="M653 1247l-182 4 306 50z" fill="#b44083" stroke="#b44083" stroke-width="1.51"/><path d="M847 628l-89 51 161 104z" fill="#983b7f" stroke="#983b7f" stroke-width="1.51"/><path d="M774 808l132 107 13-132z" fill="#a23c81" stroke="#a23c81" stroke-width="1.51"/><path d="M921 974l-158 13 174 102z" fill="#ae3f82" stroke="#ae3f82" stroke-width="1.51"/><path d="M763 987l16 154 158-52z" fill="#af4082" stroke="#af4082" stroke-width="1.51"/><path d="M329 1229l-302 65 444-43z" fill="#a43d81" stroke="#a43d81" stroke-width="1.51"/><path d="M576 1237l-105 14 182-4z" fill="#af3f82" stroke="#af3f82" stroke-width="1.51"/><path d="M774 808l16 124 116-17z" fill="#a43e81" stroke="#a43e81" stroke-width="1.51"/><path d="M758 679l16 129 145-25z" fill="#9b3b80" stroke="#9b3b80" stroke-width="1.51"/><path d="M906 915l-116 17 131 42z" fill="#a93e82" stroke="#a93e82" stroke-width="1.51"/><path d="M790 932l-27 55 158-13z" fill="#a93e81" stroke="#a93e81" stroke-width="1.51"/><path d="M779 1141l-2 160 129-35z" fill="#b94184" stroke="#b94184" stroke-width="1.51"/><path d="M824 10l27 136 61-68z" fill="#71337b" stroke="#71337b" stroke-width="1.51"/><path d="M764-32l60 42 81-97z" fill="#683179" stroke="#683179" stroke-width="1.51"/><path d="M735-179l29 147 141-55z" fill="#623179" stroke="#623179" stroke-width="1.51"/><path d="M851 146l-90 84 102 33z" fill="#79347b" stroke="#79347b" stroke-width="1.51"/><path d="M778 572l69 56 37-91z" fill="#91397e" stroke="#91397e" stroke-width="1.51"/><path d="M811 468l-33 104 106-35z" fill="#8d397e" stroke="#8d397e" stroke-width="1.51"/><path d="M561-226l70 42 104 5z" fill="#552e77" stroke="#552e77" stroke-width="1.51"/><path d="M824 10L690 141l161 5z" fill="#6f337a" stroke="#6f337a" stroke-width="1.51"/><path d="M761 230l11 106 91-73z" fill="#7c357c" stroke="#7c357c" stroke-width="1.51"/><path d="M689 18l1 123L824 10z" fill="#6a3179" stroke="#6a3179" stroke-width="1.51"/><path d="M690 141l71 89 90-84z" fill="#73337a" stroke="#73337a" stroke-width="1.51"/><path d="M778 572l-20 107 89-51z" fill="#92397f" stroke="#92397f" stroke-width="1.51"/><path d="M763 987l-73 65 89 89z" fill="#ab3e82" stroke="#ab3e82" stroke-width="1.51"/><path d="M690 1052l5 58 84 31z" fill="#ad3f82" stroke="#ad3f82" stroke-width="1.51"/><path d="M653 1247l124 54 2-160z" fill="#b54183" stroke="#b54183" stroke-width="1.51"/><path d="M764-32l-75 50 135-8z" fill="#673179" stroke="#673179" stroke-width="1.51"/><path d="M774 808l-122 44 138 80z" fill="#9f3c80" stroke="#9f3c80" stroke-width="1.51"/><path d="M618 441l160 131 33-104z" fill="#87377d" stroke="#87377d" stroke-width="1.51"/><path d="M772 336L618 441l193 27z" fill="#82367c" stroke="#82367c" stroke-width="1.51"/><path d="M735-179l-83 80 112 67z" fill="#5f2f78" stroke="#5f2f78" stroke-width="1.51"/><path d="M761 230l-100 35 111 71z" fill="#79347b" stroke="#79347b" stroke-width="1.51"/><path d="M758 679l-93 27 109 102z" fill="#963a7f" stroke="#963a7f" stroke-width="1.51"/><path d="M618 441l14 131h146z" fill="#87377d" stroke="#87377d" stroke-width="1.51"/><path d="M695 1110l-42 137 126-106z" fill="#b04083" stroke="#b04083" stroke-width="1.51"/><path d="M652 852l111 135 27-55z" fill="#a23d81" stroke="#a23d81" stroke-width="1.51"/><path d="M632 572l126 107 20-107z" fill="#8e397e" stroke="#8e397e" stroke-width="1.51"/><path d="M665 706l-13 146 122-44z" fill="#983a80" stroke="#983a80" stroke-width="1.51"/><path d="M632 572l33 134 93-27z" fill="#8f397e" stroke="#8f397e" stroke-width="1.51"/><path d="M661 265l-43 176 154-105z" fill="#7b357b" stroke="#7b357b" stroke-width="1.51"/><path d="M690 141l-29 124 100-35z" fill="#73337b" stroke="#73337b" stroke-width="1.51"/><path d="M577 944l113 108 73-65z" fill="#a43d81" stroke="#a43d81" stroke-width="1.51"/><path d="M652 852l-75 92 186 43z" fill="#9f3c80" stroke="#9f3c80" stroke-width="1.51"/><path d="M652-99l37 117 75-50z" fill="#633079" stroke="#633079" stroke-width="1.51"/><path d="M618 738l34 114 13-146z" fill="#953a7f" stroke="#953a7f" stroke-width="1.51"/><path d="M631-184l21 85 83-80z" fill="#592e77" stroke="#592e77" stroke-width="1.51"/><path d="M534-65l57 127 61-161z" fill="#5d2f78" stroke="#5d2f78" stroke-width="1.51"/><path d="M521 382l97 59 43-176z" fill="#79357c" stroke="#79357c" stroke-width="1.51"/><path d="M652-99L591 62l98-44z" fill="#623078" stroke="#623078" stroke-width="1.51"/><path d="M524 200l137 65 29-124z" fill="#6f327a" stroke="#6f327a" stroke-width="1.51"/><path d="M689 18l-98 44 99 79z" fill="#683179" stroke="#683179" stroke-width="1.51"/><path d="M577 944l-7 104 120 4z" fill="#a33d81" stroke="#a33d81" stroke-width="1.51"/><path d="M576 1237l77 10 42-137z" fill="#af3f82" stroke="#af3f82" stroke-width="1.51"/><path d="M532 1184l44 53 119-127z" fill="#ad3f82" stroke="#ad3f82" stroke-width="1.51"/><path d="M690 1052l-120-4 125 62z" fill="#a83e81" stroke="#a83e81" stroke-width="1.51"/><path d="M570 1048l-38 136 163-74z" fill="#a93e82" stroke="#a93e82" stroke-width="1.51"/><path d="M591 62l-67 138 166-59z" fill="#6a317a" stroke="#6a317a" stroke-width="1.51"/><path d="M496 280l25 102 140-117z" fill="#73337b" stroke="#73337b" stroke-width="1.51"/><path d="M632 572l-110 93 143 41z" fill="#8b387e" stroke="#8b387e" stroke-width="1.51"/><path d="M522 665l96 73 47-32z" fill="#8f397e" stroke="#8f397e" stroke-width="1.51"/><path d="M618 738l-127 72 161 42z" fill="#943a7f" stroke="#943a7f" stroke-width="1.51"/><path d="M524 200l-28 80 165-15z" fill="#70327a" stroke="#70327a" stroke-width="1.51"/><path d="M618 441L494 573l138-1z" fill="#83367c" stroke="#83367c" stroke-width="1.51"/><path d="M631-184L534-65l118-34z" fill="#582e77" stroke="#582e77" stroke-width="1.51"/><path d="M491 810l86 134 75-92z" fill="#983a7f" stroke="#983a7f" stroke-width="1.51"/><path d="M561-226L534-65l97-119z" fill="#542d76" stroke="#542d76" stroke-width="1.51"/><path d="M494 573l28 92 110-93z" fill="#86377d" stroke="#86377d" stroke-width="1.51"/><path d="M522 665l-31 145 127-72z" fill="#8e397e" stroke="#8e397e" stroke-width="1.51"/><path d="M521 382l-27 191 124-132z" fill="#7d357c" stroke="#7d357c" stroke-width="1.51"/><path d="M433-233L534-65l27-161z" fill="#502d76" stroke="#502d76" stroke-width="1.51"/><path d="M491 810l-33 75 119 59z" fill="#963a7f" stroke="#963a7f" stroke-width="1.51"/><path d="M413 100l35 37 143-75z" fill="#623178" stroke="#623178" stroke-width="1.51"/><path d="M534-65L427-50 591 62z" fill="#5c2f78" stroke="#5c2f78" stroke-width="1.51"/><path d="M427-50l-14 150 178-38z" fill="#5d2f78" stroke="#5d2f78" stroke-width="1.51"/><path d="M448 137l76 63 67-138z" fill="#663079" stroke="#663079" stroke-width="1.51"/><path d="M448 379l46 194 27-191z" fill="#79357b" stroke="#79357b" stroke-width="1.51"/><path d="M441 1162l91 22 38-136z" fill="#a63d81" stroke="#a63d81" stroke-width="1.51"/><path d="M424 1027l17 135 129-114z" fill="#a13d80" stroke="#a13d80" stroke-width="1.51"/><path d="M424 1027l146 21 7-104z" fill="#9e3c80" stroke="#9e3c80" stroke-width="1.51"/><path d="M458 885l-34 142 153-83z" fill="#9a3b7f" stroke="#9a3b7f" stroke-width="1.51"/><path d="M532 1184l-61 67 105-14z" fill="#ad3f82" stroke="#ad3f82" stroke-width="1.51"/><path d="M181 1221l-154 73 302-65z" fill="#a03c80" stroke="#a03c80" stroke-width="1.51"/><path d="M433-233l-6 183 107-15z" fill="#522d76" stroke="#522d76" stroke-width="1.51"/><path d="M448 379l-59 206 105-12z" fill="#7c357c" stroke="#7c357c" stroke-width="1.51"/><path d="M496 280l-48 99 73 3z" fill="#73337a" stroke="#73337a" stroke-width="1.51"/><path d="M396 792l95 18 31-145z" fill="#8c397e" stroke="#8c397e" stroke-width="1.51"/><path d="M368 681l28 111 126-127z" fill="#88377d" stroke="#88377d" stroke-width="1.51"/><path d="M441 1162l30 89 61-67z" fill="#a93e81" stroke="#a93e81" stroke-width="1.51"/><path d="M494 573l-105 12 133 80z" fill="#83377d" stroke="#83377d" stroke-width="1.51"/><path d="M389 585l-21 96 154-16z" fill="#83367d" stroke="#83367d" stroke-width="1.51"/><path d="M448 137l48 143 28-80z" fill="#6a3179" stroke="#6a3179" stroke-width="1.51"/><path d="M328 552l61 33 59-206z" fill="#79347b" stroke="#79347b" stroke-width="1.51"/><path d="M320 392l8 160 120-173z" fill="#73347b" stroke="#73347b" stroke-width="1.51"/><path d="M448 137l-109 95 157 48z" fill="#683179" stroke="#683179" stroke-width="1.51"/><path d="M339 232l47 71 110-23z" fill="#6a3279" stroke="#6a3279" stroke-width="1.51"/><path d="M386 303l62 76 48-99z" fill="#6f327a" stroke="#6f327a" stroke-width="1.51"/><path d="M396 792l62 93 33-75z" fill="#91397e" stroke="#91397e" stroke-width="1.51"/><path d="M256-213L427-50l6-183z" fill="#4a2c75" stroke="#4a2c75" stroke-width="1.51"/><path d="M336 1025l88 2 34-142z" fill="#983b7f" stroke="#983b7f" stroke-width="1.51"/><path d="M441 1162l-112 67 142 22z" fill="#a73e81" stroke="#a73e81" stroke-width="1.51"/><path d="M424 1027l-88-2 105 137z" fill="#9e3c80" stroke="#9e3c80" stroke-width="1.51"/><path d="M336 1025l-51 76 156 61z" fill="#9d3c80" stroke="#9d3c80" stroke-width="1.51"/><path d="M396 792l-120 63 182 30z" fill="#8f397e" stroke="#8f397e" stroke-width="1.51"/><path d="M276 855l60 170 122-140z" fill="#923a7f" stroke="#923a7f" stroke-width="1.51"/><path d="M307 99l106 1 14-150z" fill="#5a2e77" stroke="#5a2e77" stroke-width="1.51"/><path d="M256-213l-1 188 172-25z" fill="#4c2d76" stroke="#4c2d76" stroke-width="1.51"/><path d="M386 303l-44 24 106 52z" fill="#6e327a" stroke="#6e327a" stroke-width="1.51"/><path d="M342 327l-22 65 128-13z" fill="#6f337a" stroke="#6f337a" stroke-width="1.51"/><path d="M413 100l-74 132 109-95z" fill="#633078" stroke="#633078" stroke-width="1.51"/><path d="M255-25l52 124L427-50z" fill="#552e77" stroke="#552e77" stroke-width="1.51"/><path d="M285 1101l44 128 112-67z" fill="#a13d81" stroke="#a13d81" stroke-width="1.51"/><path d="M307 99l32 133 74-132z" fill="#5f3078" stroke="#5f3078" stroke-width="1.51"/><path d="M340 662l28 19 21-96z" fill="#81367c" stroke="#81367c" stroke-width="1.51"/><path d="M368 681l-84 104 112 7z" fill="#87387d" stroke="#87387d" stroke-width="1.51"/><path d="M284 785l-8 70 120-63z" fill="#89387d" stroke="#89387d" stroke-width="1.51"/><path d="M339 232l3 95 44-24z" fill="#693279" stroke="#693279" stroke-width="1.51"/><path d="M328 552l12 110 49-77z" fill="#7e367c" stroke="#7e367c" stroke-width="1.51"/><path d="M320 392L193 493l135 59z" fill="#73347b" stroke="#73347b" stroke-width="1.51"/><path d="M276 855l-94 80 154 90z" fill="#8f397e" stroke="#8f397e" stroke-width="1.51"/><path d="M340 662l-56 123 84-104z" fill="#84367d" stroke="#84367d" stroke-width="1.51"/><path d="M82-150l73-10 101-53z" fill="#3f2a74" stroke="#3f2a74" stroke-width="1.51"/><path d="M-85-201l167 51 174-63z" fill="#392974" stroke="#392974" stroke-width="1.51"/><path d="M159-106l96 81 1-188z" fill="#472b75" stroke="#472b75" stroke-width="1.51"/><path d="M285 1101l-104 120 148 8z" fill="#9f3c80" stroke="#9f3c80" stroke-width="1.51"/><path d="M307 99L201 202l138 30z" fill="#5f3078" stroke="#5f3078" stroke-width="1.51"/><path d="M328 552l-142 63 154 47z" fill="#7b357c" stroke="#7b357c" stroke-width="1.51"/><path d="M186 615l98 170 56-123z" fill="#80367c" stroke="#80367c" stroke-width="1.51"/><path d="M149 284l171 108 22-65z" fill="#693179" stroke="#693179" stroke-width="1.51"/><path d="M339 232l-138-30 141 125z" fill="#643179" stroke="#643179" stroke-width="1.51"/><path d="M201 202l-52 82 193 43z" fill="#623178" stroke="#623178" stroke-width="1.51"/><path d="M186 615l-24 137 122 33z" fill="#7f357c" stroke="#7f357c" stroke-width="1.51"/><path d="M182 935l-19 100 173-10z" fill="#923a7e" stroke="#923a7e" stroke-width="1.51"/><path d="M163 1035l122 66 51-76z" fill="#973a7f" stroke="#973a7f" stroke-width="1.51"/><path d="M149 284l-8 112 179-4z" fill="#683179" stroke="#683179" stroke-width="1.51"/><path d="M193 493l-7 122 142-63z" fill="#76347b" stroke="#76347b" stroke-width="1.51"/><path d="M141 396l52 97 127-101z" fill="#6d327a" stroke="#6d327a" stroke-width="1.51"/><path d="M155-160l4 54 97-107z" fill="#412a74" stroke="#412a74" stroke-width="1.51"/><path d="M255-25L153 12l154 87z" fill="#522e77" stroke="#522e77" stroke-width="1.51"/><path d="M153 12l48 190L307 99z" fill="#572f77" stroke="#572f77" stroke-width="1.51"/><path d="M162 752l114 103 8-70z" fill="#86377d" stroke="#86377d" stroke-width="1.51"/><path d="M164 1106l17 115 104-120z" fill="#9a3b7f" stroke="#9a3b7f" stroke-width="1.51"/><path d="M163 1035l1 71 121-5z" fill="#963a7f" stroke="#963a7f" stroke-width="1.51"/><path d="M153 12L94 66l107 136z" fill="#522d77" stroke="#522d77" stroke-width="1.51"/><path d="M162 752l20 183 94-80z" fill="#87377d" stroke="#87377d" stroke-width="1.51"/><path d="M94 66l9 107 98 29z" fill="#562e77" stroke="#562e77" stroke-width="1.51"/><path d="M159-106l-6 118 102-37z" fill="#4a2c76" stroke="#4a2c76" stroke-width="1.51"/><path d="M51 768l56 170 55-186z" fill="#81367c" stroke="#81367c" stroke-width="1.51"/><path d="M107 938l56 97 19-100z" fill="#8d387e" stroke="#8d387e" stroke-width="1.51"/><path d="M162 752l-55 186 75-3z" fill="#87377d" stroke="#87377d" stroke-width="1.51"/><path d="M28 638l134 114 24-137z" fill="#78347b" stroke="#78347b" stroke-width="1.51"/><path d="M33 556l153 59 7-122z" fill="#71337a" stroke="#71337a" stroke-width="1.51"/><path d="M103 173l46 111 52-82z" fill="#5b2f78" stroke="#5b2f78" stroke-width="1.51"/><path d="M164 1106l-105 15 122 100z" fill="#983b7f" stroke="#983b7f" stroke-width="1.51"/><path d="M141 396L33 556l160-63z" fill="#6c327a" stroke="#6c327a" stroke-width="1.51"/><path d="M18 421l15 135 108-160z" fill="#683179" stroke="#683179" stroke-width="1.51"/><path d="M33 556l-5 82 158-23z" fill="#72337b" stroke="#72337b" stroke-width="1.51"/><path d="M32-82l121 94 6-118z" fill="#452c75" stroke="#452c75" stroke-width="1.51"/><path d="M28 638l23 130 111-16z" fill="#7a347c" stroke="#7a347c" stroke-width="1.51"/><path d="M59 1121l-32 173 154-73z" fill="#9a3b7f" stroke="#9a3b7f" stroke-width="1.51"/><path d="M155-160l-73 10 77 44z" fill="#402b74" stroke="#402b74" stroke-width="1.51"/><path d="M107 938l-85 42 141 55z" fill="#8b387e" stroke="#8b387e" stroke-width="1.51"/><path d="M163 1035l-104 86 105-15z" fill="#933a7e" stroke="#933a7e" stroke-width="1.51"/><path d="M22 980l37 141 104-86z" fill="#8f397e" stroke="#8f397e" stroke-width="1.51"/><path d="M18 421l123-25 8-112z" fill="#643179" stroke="#643179" stroke-width="1.51"/><path d="M103 173l-91 75 137 36z" fill="#5a2e77" stroke="#5a2e77" stroke-width="1.51"/><path d="M12 248l6 173 131-137z" fill="#5e3078" stroke="#5e3078" stroke-width="1.51"/><path d="M82-150L32-82l127-24z" fill="#402a74" stroke="#402a74" stroke-width="1.51"/><path d="M32-82L94 66l59-54z" fill="#492b75" stroke="#492b75" stroke-width="1.51"/><path d="M-83 910l105 70 29-212z" fill="#81367c" stroke="#81367c" stroke-width="1.51"/><path d="M22 980l-47 45 84 96z" fill="#8c387e" stroke="#8c387e" stroke-width="1.51"/><path d="M94 66l-185 96 194 11z" fill="#502c76" stroke="#502c76" stroke-width="1.51"/><path d="M51 768L22 980l85-42z" fill="#84377c" stroke="#84377c" stroke-width="1.51"/><path d="M32-82L-110 58l204 8z" fill="#462b75" stroke="#462b75" stroke-width="1.51"/><path d="M-91 162l103 86 91-75z" fill="#532d77" stroke="#532d77" stroke-width="1.51"/><path d="M18 421l-43 25 58 110z" fill="#673179" stroke="#673179" stroke-width="1.51"/><path d="M-110 58l19 104L94 66z" fill="#492b75" stroke="#492b75" stroke-width="1.51"/><path d="M12 248l-90 65 96 108z" fill="#5b2f78" stroke="#5b2f78" stroke-width="1.51"/><path d="M-103 1157l130 137 32-173z" fill="#943a7f" stroke="#943a7f" stroke-width="1.51"/><path d="M-85-201L32-82l50-68z" fill="#382974" stroke="#382974" stroke-width="1.51"/><path d="M-103 1157l16 128 114 9z" fill="#963a7f" stroke="#963a7f" stroke-width="1.51"/><path d="M-64-92l-46 150L32-82z" fill="#3e2a74" stroke="#3e2a74" stroke-width="1.51"/><path d="M-85-201l21 109 96 10z" fill="#382973" stroke="#382973" stroke-width="1.51"/><path d="M-110 731l27 179L51 768z" fill="#7a357b" stroke="#7a357b" stroke-width="1.51"/><path d="M28 638l-114 31 137 99z" fill="#74347b" stroke="#74347b" stroke-width="1.51"/><path d="M-86 669l-24 62 161 37z" fill="#75347b" stroke="#75347b" stroke-width="1.51"/><path d="M-25 1025l-78 132 162-36z" fill="#8e397e" stroke="#8e397e" stroke-width="1.51"/><path d="M-78 313l53 133 43-25z" fill="#5f2f78" stroke="#5f2f78" stroke-width="1.51"/><path d="M-59 564l87 74 5-82z" fill="#6e327a" stroke="#6e327a" stroke-width="1.51"/><path d="M-25 446l-34 118 92-8z" fill="#693279" stroke="#693279" stroke-width="1.51"/><path d="M-59 564l-27 105 114-31z" fill="#6f327a" stroke="#6f327a" stroke-width="1.51"/><path d="M-83 910l58 115 47-45z" fill="#86377d" stroke="#86377d" stroke-width="1.51"/><path d="M-147-19l37 77 46-150z" fill="#3d2a74" stroke="#3d2a74" stroke-width="1.51"/><path d="M-91 162l13 151 90-65z" fill="#532d76" stroke="#532d76" stroke-width="1.51"/><path d="M-156 320l-46 97 124-104z" fill="#572e77" stroke="#572e77" stroke-width="1.51"/><path d="M-218 1033l115 124 78-132z" fill="#88387d" stroke="#88387d" stroke-width="1.51"/><path d="M-175 945l-43 88 193-8z" fill="#82377c" stroke="#82377c" stroke-width="1.51"/><path d="M-83 910l-92 35 150 80z" fill="#82367c" stroke="#82367c" stroke-width="1.51"/><path d="M-78 313l-124 104 177 29z" fill="#5c2f78" stroke="#5c2f78" stroke-width="1.51"/><path d="M-202 417l73 109 104-80z" fill="#603078" stroke="#603078" stroke-width="1.51"/><path d="M-129 526l70 38 34-118z" fill="#663179" stroke="#663179" stroke-width="1.51"/><path d="M-218 1033l43 115 72 9z" fill="#89387d" stroke="#89387d" stroke-width="1.51"/><path d="M-229 230l73 90 65-158z" fill="#4e2c76" stroke="#4e2c76" stroke-width="1.51"/><path d="M-103 1157l-105 82 121 46z" fill="#913a7e" stroke="#913a7e" stroke-width="1.51"/><path d="M-110 731l-100 7 127 172z" fill="#75347b" stroke="#75347b" stroke-width="1.51"/><path d="M-210 738l35 207 92-35z" fill="#79347b" stroke="#79347b" stroke-width="1.51"/><path d="M-91 162l-65 158 78-7z" fill="#532d77" stroke="#532d77" stroke-width="1.51"/><path d="M-85-201l-135 38 156 71z" fill="#302872" stroke="#302872" stroke-width="1.51"/><path d="M-129 526l43 143 27-105z" fill="#6a3179" stroke="#6a3179" stroke-width="1.51"/><path d="M-129 526l-88 139 131 4z" fill="#6a3279" stroke="#6a3279" stroke-width="1.51"/><path d="M-220-163l73 144 83-73z" fill="#342973" stroke="#342973" stroke-width="1.51"/><path d="M-175 1148l-33 91 105-82z" fill="#8d387e" stroke="#8d387e" stroke-width="1.51"/><path d="M-110 58l-87-22 106 126z" fill="#442b75" stroke="#442b75" stroke-width="1.51"/><path d="M-217 665l107 66 24-62z" fill="#6f337a" stroke="#6f337a" stroke-width="1.51"/><path d="M-197 36l-32 194 138-68z" fill="#462b75" stroke="#462b75" stroke-width="1.51"/><path d="M-147-19l-50 55 87 22z" fill="#3e2a74" stroke="#3e2a74" stroke-width="1.51"/><path d="M-217 665l7 73 100-7z" fill="#6e327a" stroke="#6e327a" stroke-width="1.51"/><path d="M-202 417l-15 248 88-139z" fill="#623079" stroke="#623079" stroke-width="1.51"/><path d="M-220-163l23 199 50-55z" fill="#362973" stroke="#362973" stroke-width="1.51"/><path d="M-229 230l27 187 46-97z" fill="#532d77" stroke="#532d77" stroke-width="1.51"/><path d="M-210 738l-8 295 43-88z" fill="#7a357b" stroke="#7a357b" stroke-width="1.51"/><path d="M-218 1033l10 206 33-91z" fill="#89387d" stroke="#89387d" stroke-width="1.51"/><path d="M-220-163l-9 393 32-194z" fill="#3b2974" stroke="#3b2974" stroke-width="1.51"/><path d="M-229 230l12 435 15-248z" fill="#5a2e77" stroke="#5a2e77" stroke-width="1.51"/><path d="M-217 665l-1 368 8-295z" fill="#73337a" stroke="#73337a" stroke-width="1.51"/><path d="M-229 230l11 803 1-368z" fill="#683179" stroke="#683179" stroke-width="1.51"/></svg>
