<svg xmlns="http://www.w3.org/2000/svg" viewBox="0 0 400 400"><path fill="#FFF" d="M280.579 184.955c2.491-2.096 3.74-5.015 3.74-8.755 0-3.626-1.249-6.431-3.74-8.415-2.494-1.981-5.895-2.917-10.2-2.805h-23.8v23.12h23.8c4.306 0 7.706-1.046 10.2-3.145zM283.299 213.855c-3.174-2.21-7.479-3.257-12.92-3.146h-23.8v24.99h23.8c5.44 0 9.746-1.132 12.92-3.4 3.172-2.266 4.761-5.439 4.761-9.52 0-3.739-1.589-6.714-4.761-8.924z"/><path fill="#FFF" d="M0 0v400h400V0H0zm176.37 244.795c-4.194 5.61-9.945 9.834-17.255 12.665-7.311 2.832-15.443 4.25-24.396 4.25-9.86 0-19.693-1.729-29.495-5.185-9.804-3.456-18.275-8.187-25.415-14.195l12.07-24.31c6.006 5.328 13.117 9.689 21.335 13.09 8.216 3.399 15.496 5.1 21.845 5.1 4.646 0 8.301-.85 10.965-2.55 2.662-1.7 3.995-4.191 3.995-7.48 0-2.72-.993-4.985-2.975-6.8-1.984-1.812-4.479-3.257-7.48-4.335-3.004-1.075-7.225-2.351-12.665-3.825-8.159-2.266-14.903-4.561-20.229-6.885-5.329-2.321-9.889-5.836-13.685-10.54-3.798-4.701-5.695-10.965-5.695-18.785 0-7.365 1.955-13.825 5.865-19.38 3.91-5.552 9.461-9.831 16.66-12.835 7.196-3.001 15.555-4.505 25.075-4.505 8.611 0 17.111 1.22 25.5 3.655 8.386 2.438 15.752 5.694 22.101 9.774l-11.73 24.82c-6.349-3.74-13.119-6.8-20.314-9.18-7.199-2.38-13.234-3.57-18.105-3.57-3.854 0-6.885.709-9.095 2.125-2.21 1.419-3.315 3.485-3.315 6.205 0 2.608.962 4.789 2.891 6.545 1.926 1.759 4.306 3.174 7.14 4.25 2.831 1.078 7.025 2.465 12.58 4.165 8.271 2.38 15.101 4.76 20.484 7.14 5.382 2.38 10.001 6.035 13.855 10.966 3.852 4.93 5.78 11.363 5.78 19.295-.002 7.934-2.1 14.706-6.292 20.315zm138.209-.51c-3.74 5.044-9.068 8.898-15.979 11.56-6.915 2.665-15.019 3.995-24.311 3.995h-58.82V140.67h56.61c8.951 0 16.745 1.22 23.375 3.655 6.63 2.438 11.757 5.923 15.385 10.455 3.626 4.534 5.44 9.859 5.44 15.979 0 6.234-1.844 11.675-5.525 16.32-3.684 4.648-8.699 7.82-15.045 9.52 7.592 1.475 13.571 4.931 17.936 10.37 4.361 5.44 6.545 12.015 6.545 19.721 0 6.689-1.87 12.553-5.611 17.595z"/></svg>
