<svg width="14" height="14" viewBox="0 0 14 14" fill="none" xmlns="http://www.w3.org/2000/svg">
<path d="M6.46154 1.07692V0.538462C6.46154 0.395653 6.51827 0.258693 6.61925 0.157712C6.72023 0.0567306 6.85719 0 7 0C7.14281 0 7.27977 0.0567306 7.38075 0.157712C7.48173 0.258693 7.53846 0.395653 7.53846 0.538462V1.07692C7.53846 1.21973 7.48173 1.35669 7.38075 1.45767C7.27977 1.55865 7.14281 1.61538 7 1.61538C6.85719 1.61538 6.72023 1.55865 6.61925 1.45767C6.51827 1.35669 6.46154 1.21973 6.46154 1.07692ZM7 2.69231C6.14802 2.69231 5.31517 2.94495 4.60677 3.41828C3.89838 3.89162 3.34625 4.56439 3.02021 5.35152C2.69417 6.13865 2.60887 7.00478 2.77508 7.84039C2.94129 8.676 3.35156 9.44356 3.954 10.046C4.55644 10.6484 5.324 11.0587 6.15961 11.2249C6.99522 11.3911 7.86136 11.3058 8.64848 10.9798C9.43561 10.6538 10.1084 10.1016 10.5817 9.39323C11.0551 8.68483 11.3077 7.85198 11.3077 7C11.3064 5.85791 10.8522 4.76296 10.0446 3.95538C9.23704 3.1478 8.14209 2.69355 7 2.69231ZM2.31135 3.07327C2.41238 3.17431 2.54942 3.23107 2.69231 3.23107C2.8352 3.23107 2.97223 3.17431 3.07327 3.07327C3.17431 2.97223 3.23107 2.8352 3.23107 2.69231C3.23107 2.54942 3.17431 2.41238 3.07327 2.31135L2.53481 1.77288C2.43377 1.67185 2.29673 1.61509 2.15385 1.61509C2.01096 1.61509 1.87392 1.67185 1.77288 1.77288C1.67185 1.87392 1.61509 2.01096 1.61509 2.15385C1.61509 2.29673 1.67185 2.43377 1.77288 2.53481L2.31135 3.07327ZM2.31135 10.9267L1.77288 11.4652C1.67185 11.5662 1.61509 11.7033 1.61509 11.8462C1.61509 11.989 1.67185 12.1261 1.77288 12.2271C1.87392 12.3282 2.01096 12.3849 2.15385 12.3849C2.29673 12.3849 2.43377 12.3282 2.53481 12.2271L3.07327 11.6887C3.1233 11.6386 3.16298 11.5792 3.19006 11.5139C3.21713 11.4485 3.23107 11.3784 3.23107 11.3077C3.23107 11.2369 3.21713 11.1669 3.19006 11.1015C3.16298 11.0362 3.1233 10.9768 3.07327 10.9267C3.02324 10.8767 2.96385 10.837 2.89848 10.8099C2.83312 10.7829 2.76306 10.7689 2.69231 10.7689C2.62156 10.7689 2.5515 10.7829 2.48613 10.8099C2.42077 10.837 2.36137 10.8767 2.31135 10.9267ZM11.3077 3.23077C11.3784 3.23083 11.4485 3.21694 11.5138 3.18992C11.5792 3.1629 11.6386 3.12326 11.6887 3.07327L12.2271 2.53481C12.3282 2.43377 12.3849 2.29673 12.3849 2.15385C12.3849 2.01096 12.3282 1.87392 12.2271 1.77288C12.1261 1.67185 11.989 1.61509 11.8462 1.61509C11.7033 1.61509 11.5662 1.67185 11.4652 1.77288L10.9267 2.31135C10.8513 2.38665 10.8 2.48264 10.7792 2.58714C10.7584 2.69165 10.769 2.79998 10.8098 2.89843C10.8506 2.99687 10.9197 3.081 11.0083 3.14016C11.0969 3.19932 11.2011 3.23085 11.3077 3.23077ZM11.6887 10.9267C11.5876 10.8257 11.4506 10.7689 11.3077 10.7689C11.1648 10.7689 11.0278 10.8257 10.9267 10.9267C10.8257 11.0278 10.7689 11.1648 10.7689 11.3077C10.7689 11.4506 10.8257 11.5876 10.9267 11.6887L11.4652 12.2271C11.5152 12.2771 11.5746 12.3168 11.64 12.3439C11.7053 12.371 11.7754 12.3849 11.8462 12.3849C11.9169 12.3849 11.987 12.371 12.0523 12.3439C12.1177 12.3168 12.1771 12.2771 12.2271 12.2271C12.2771 12.1771 12.3168 12.1177 12.3439 12.0523C12.371 11.987 12.3849 11.9169 12.3849 11.8462C12.3849 11.7754 12.371 11.7053 12.3439 11.64C12.3168 11.5746 12.2771 11.5152 12.2271 11.4652L11.6887 10.9267ZM1.07692 6.46154H0.538462C0.395653 6.46154 0.258693 6.51827 0.157712 6.61925C0.0567306 6.72023 0 6.85719 0 7C0 7.14281 0.0567306 7.27977 0.157712 7.38075C0.258693 7.48173 0.395653 7.53846 0.538462 7.53846H1.07692C1.21973 7.53846 1.35669 7.48173 1.45767 7.38075C1.55865 7.27977 1.61538 7.14281 1.61538 7C1.61538 6.85719 1.55865 6.72023 1.45767 6.61925C1.35669 6.51827 1.21973 6.46154 1.07692 6.46154ZM7 12.3846C6.85719 12.3846 6.72023 12.4413 6.61925 12.5423C6.51827 12.6433 6.46154 12.7803 6.46154 12.9231V13.4615C6.46154 13.6043 6.51827 13.7413 6.61925 13.8423C6.72023 13.9433 6.85719 14 7 14C7.14281 14 7.27977 13.9433 7.38075 13.8423C7.48173 13.7413 7.53846 13.6043 7.53846 13.4615V12.9231C7.53846 12.7803 7.48173 12.6433 7.38075 12.5423C7.27977 12.4413 7.14281 12.3846 7 12.3846ZM13.4615 6.46154H12.9231C12.7803 6.46154 12.6433 6.51827 12.5423 6.61925C12.4413 6.72023 12.3846 6.85719 12.3846 7C12.3846 7.14281 12.4413 7.27977 12.5423 7.38075C12.6433 7.48173 12.7803 7.53846 12.9231 7.53846H13.4615C13.6043 7.53846 13.7413 7.48173 13.8423 7.38075C13.9433 7.27977 14 7.14281 14 7C14 6.85719 13.9433 6.72023 13.8423 6.61925C13.7413 6.51827 13.6043 6.46154 13.4615 6.46154Z" fill="#E9ECEF"/>
</svg>
